<?xml version="1.0" standalone="no"?>
<!DOCTYPE svg PUBLIC "-//W3C//DTD SVG 20010904//EN"
 "http://www.w3.org/TR/2001/REC-SVG-20010904/DTD/svg10.dtd">
<svg version="1.0" xmlns="http://www.w3.org/2000/svg"
 width="944.000000pt" height="1280.000000pt" viewBox="0 0 944.000000 1280.000000"
 preserveAspectRatio="xMidYMid meet">
<g transform="translate(0.000000,1280.000000) scale(0.100000,-0.100000)"
fill="#000000" stroke="none">
<path d="M0 6421 l0 -6378 993 -7 c545 -4 1624 -12 2397 -19 2100 -18 2132
-17 2530 29 794 92 1540 369 2142 794 782 553 1238 1356 1342 2360 42 406 43
499 16 815 -69 805 -322 1409 -818 1953 -193 210 -534 485 -825 662 -58 36
-106 70 -107 76 0 6 51 50 113 97 595 451 1018 1156 1186 1978 34 164 60 376
71 581 9 167 9 220 -5 345 -98 896 -404 1573 -920 2034 -409 366 -908 626
-1518 793 -504 138 -1019 206 -1762 236 -148 6 -351 15 -450 20 -106 6 -1043
10 -2282 10 l-2103 0 0 -6379z m4395 3560 c498 -72 785 -250 921 -573 71 -167
94 -313 75 -478 -31 -259 -132 -473 -306 -645 -175 -173 -403 -285 -695 -341
-118 -23 -868 -33 -881 -12 -5 7 -9 470 -9 1029 0 799 3 1018 13 1028 15 16
759 9 882 -8z m225 -4894 c505 -67 781 -176 944 -373 165 -200 238 -540 191
-884 -65 -477 -329 -725 -885 -834 -225 -44 -423 -56 -921 -56 -389 0 -438 2
-443 16 -9 23 -7 2139 2 2148 13 15 986 -1 1112 -17z"/>
</g>
</svg>
