<?xml version="1.0" standalone="no"?>
<!DOCTYPE svg PUBLIC "-//W3C//DTD SVG 20010904//EN"
 "http://www.w3.org/TR/2001/REC-SVG-20010904/DTD/svg10.dtd">
<svg version="1.0" xmlns="http://www.w3.org/2000/svg"
 width="1028.000000pt" height="1280.000000pt" viewBox="0 0 1028.000000 1280.000000"
 preserveAspectRatio="xMidYMid meet">
<g transform="translate(0.000000,1280.000000) scale(0.100000,-0.100000)"
fill="#000000" stroke="none">
<path d="M3135 12791 c-11 -5 -63 -13 -115 -20 -112 -13 -1164 -139 -1770
-211 -234 -28 -497 -59 -585 -70 -88 -11 -257 -31 -375 -45 -118 -13 -232 -27
-253 -31 l-37 -6 0 -3816 c0 -2542 3 -3869 10 -3972 48 -712 88 -994 200
-1425 243 -937 731 -1693 1438 -2228 653 -495 1522 -801 2583 -912 193 -20
784 -55 924 -55 122 0 690 33 855 50 1079 109 1940 413 2614 923 725 548 1224
1333 1465 2302 81 326 136 688 161 1060 6 88 15 218 20 289 6 79 10 1672 10
4152 l0 4024 -111 0 c-62 0 -128 -5 -148 -10 -20 -6 -283 -40 -586 -76 -302
-35 -773 -91 -1045 -124 -272 -33 -704 -84 -960 -114 -256 -31 -480 -58 -497
-61 l-33 -6 0 -3585 c0 -3591 -2 -3769 -35 -4055 -93 -788 -374 -1232 -910
-1438 -436 -168 -1121 -173 -1580 -11 -640 226 -926 731 -985 1744 -6 118 -10
1457 -10 3957 l0 3779 -112 -1 c-62 0 -122 -4 -133 -8z"/>
</g>
</svg>
